<svg xmlns="http://www.w3.org/2000/svg" version="1.1" xmlns:xlink="http://www.w3.org/1999/xlink" width="196" height="196"><svg width="196" height="196" viewBox="0 0 196 196" fill="none" xmlns="http://www.w3.org/2000/svg">
<path d="M0 78.4C0 50.9574 0 37.2361 5.34068 26.7545C10.0385 17.5345 17.5345 10.0385 26.7545 5.34068C37.2361 0 50.9574 0 78.4 0H117.6C145.043 0 158.764 0 169.246 5.34068C178.465 10.0385 185.962 17.5345 190.659 26.7545C196 37.2361 196 50.9574 196 78.4V117.6C196 145.043 196 158.764 190.659 169.246C185.962 178.465 178.465 185.962 169.246 190.659C158.764 196 145.043 196 117.6 196H78.4C50.9574 196 37.2361 196 26.7545 190.659C17.5345 185.962 10.0385 178.465 5.34068 169.246C0 158.764 0 145.043 0 117.6V78.4Z" fill="white"></path>
<path d="M106.423 113.979L84.4473 196H78.4C74.9189 196 71.6586 195.999 68.5977 195.988L91.6309 110.015L106.423 113.979Z" fill="#4554C9"></path>
<path fill-rule="evenodd" clip-rule="evenodd" d="M117.6 0C145.043 0 158.764 0 169.246 5.34068C178.465 10.0385 185.962 17.5345 190.659 26.7545C196 37.2361 196 50.9574 196 78.4V117.6C196 145.043 196 158.764 190.659 169.246C185.962 178.465 178.465 185.962 169.246 190.659C158.764 196 145.043 196 117.6 196H112.982L125.519 149.217C125.956 147.583 124.987 145.901 123.354 145.463C121.72 145.025 120.039 145.996 119.601 147.629L106.642 196H90.7881L112.339 115.562L121.215 117.942L121.523 118.009C123.055 118.256 124.555 117.308 124.966 115.777C125.376 114.246 124.55 112.674 123.1 112.123L122.801 112.027L78.4268 100.136C76.7939 99.6992 75.1147 100.668 74.6768 102.301C74.2391 103.934 75.209 105.613 76.8418 106.052L85.7158 108.429L62.2666 195.944C55.4686 195.865 49.7675 195.673 44.8516 195.211C45.0356 194.938 45.1813 194.632 45.2715 194.296L61.918 132.173C62.355 130.54 61.3861 128.86 59.7529 128.422C58.1197 127.984 56.4413 128.954 56.0029 130.587L39.3564 192.711C39.1891 193.337 39.2291 193.968 39.4326 194.535C34.5067 193.746 30.4309 192.533 26.7545 190.659C17.5345 185.962 10.0385 178.465 5.34068 169.246C0 158.764 0 145.043 0 117.6V78.4C0 50.9574 0 37.2361 5.34068 26.7545C10.0385 17.5345 17.5345 10.0385 26.7545 5.34068C37.2361 0 50.9574 0 78.4 0H117.6ZM48.9951 67.5488C46.2121 67.5097 42.8894 67.951 39.4971 69.2539C32.5759 71.9122 25.6945 78.0386 22.4766 90.0479C19.1456 102.481 24.2024 112.5 32.2441 118.044C40.1195 123.473 51.0516 124.721 59.6123 119.653C65.336 116.265 68.1768 109.432 67.998 103.016C67.8157 96.477 64.4787 89.6966 57.0762 86.6631C49.5004 83.5587 43.004 86.9834 39.5742 91.9326C36.4452 96.448 35.2333 103.343 39.2783 108.028L39.6885 108.474L39.915 108.689C41.1012 109.69 42.8786 109.648 44.0186 108.546C45.1575 107.443 45.2578 105.67 44.2969 104.451L44.0908 104.215L43.7949 103.868C42.4054 102.022 42.4099 98.5924 44.6084 95.4199C46.7541 92.3242 50.3742 90.5346 54.7559 92.3301C59.4701 94.2627 61.7467 98.5515 61.876 103.187C62.0085 107.944 59.859 112.388 56.4932 114.381C50.3056 118.043 41.9548 117.297 35.7227 113.002C29.6576 108.821 25.7801 101.384 28.3926 91.6328C31.1193 81.4571 36.6592 76.9051 41.6924 74.9717C44.2765 73.9792 46.8146 73.6445 48.9082 73.6738C50.6174 73.6979 51.967 74.1823 53.5713 74.5977L157.143 102.205C158.671 102.608 160.24 102.953 161.632 103.73C163.46 104.752 165.492 106.31 167.233 108.462C170.626 112.653 173.148 119.365 170.422 129.541C167.809 139.293 160.733 143.796 153.39 144.384C145.845 144.988 138.24 141.459 134.713 135.193C132.794 131.784 133.155 126.86 135.648 122.806C138.078 118.856 142.194 116.281 147.243 116.965C151.935 117.601 154.174 120.96 154.484 124.714C154.802 128.561 153.091 131.536 150.964 132.438L150.536 132.591C148.91 133.056 147.969 134.751 148.434 136.377C148.87 137.902 150.387 138.826 151.915 138.552L152.22 138.479C158.484 136.687 161.055 129.862 160.588 124.211C160.092 118.21 156.179 111.996 148.066 110.896C140.139 109.822 133.857 114.025 130.43 119.597C127.066 125.064 126.111 132.403 129.374 138.199C134.254 146.868 144.345 151.251 153.88 150.487C163.616 149.707 173.005 143.559 176.337 131.126C179.554 119.118 176.659 110.373 171.995 104.61C169.709 101.786 167.05 99.7405 164.62 98.3828C162.451 97.1711 160.512 96.7646 158.471 96.2178L55.3984 68.748C53.0498 68.1187 51.4772 67.5837 48.9951 67.5488ZM47.4072 49.0391C45.8751 48.791 44.3723 49.739 43.9619 51.2705C43.5518 52.8022 44.3798 54.3739 45.8311 54.9248L46.1299 55.0205L171.852 88.708L172.156 88.7744C173.689 89.0227 175.191 88.0745 175.602 86.543C176.012 85.011 175.184 83.4395 173.732 82.8887L173.437 82.793L47.7148 49.1055L47.4072 49.0391Z" fill="#4554C9"></path>
</svg><style>@media (prefers-color-scheme: light) { :root { filter: none; } }
@media (prefers-color-scheme: dark) { :root { filter: none; } }
</style></svg>