<svg width="64" height="64" viewBox="0 0 64 64" fill="none" xmlns="http://www.w3.org/2000/svg">
<g clip-path="url(#clip0_954_13)">
<path d="M0 16C0 7.16344 7.16344 0 16 0H48C56.8366 0 64 7.16344 64 16V48C64 56.8366 56.8366 64 48 64H16C7.16344 64 0 56.8366 0 48V16Z" fill="white"/>
<path d="M24.3762 33.4042C24.5192 32.8713 25.067 32.5547 25.5998 32.6972L40.0822 36.58L40.1799 36.6112C40.6533 36.7912 40.9229 37.3046 40.7893 37.8046C40.6553 38.3044 40.1651 38.6139 39.6652 38.5331L39.5647 38.5116L36.6682 37.7343L29.634 63.9999H27.5646L34.7375 37.2177L29.9094 35.9227L22.3908 63.9999H20.3215L27.9787 35.4052L25.0822 34.6288C24.5496 34.4855 24.2334 33.9374 24.3762 33.4042ZM39.0373 48.205C39.1804 47.6718 39.7299 47.355 40.2629 47.4979C40.7958 47.641 41.1125 48.1903 40.9699 48.7235L36.8781 63.9999H34.8078L39.0373 48.205ZM18.2814 42.6405C18.4246 42.1076 18.9722 41.7907 19.5051 41.9335C20.038 42.0764 20.3545 42.6249 20.2121 43.1581L14.7785 63.4433C14.7263 63.6379 14.6193 63.8025 14.4797 63.9276C13.9673 63.8794 13.4622 63.8063 12.965 63.7108C12.8249 63.4844 12.7737 63.2031 12.8479 62.9257L18.2814 42.6405ZM15.9943 22.0565C16.8043 22.068 17.3177 22.2427 18.0842 22.4481L51.7238 31.4179C52.3898 31.5964 53.0229 31.7294 53.7307 32.1249C54.5236 32.5682 55.3917 33.2358 56.1379 34.1581C57.6602 36.0397 58.6049 38.8953 57.5549 42.8163C56.4676 46.8762 53.4035 48.8838 50.2258 49.1386C47.1139 49.388 43.8205 47.9565 42.2277 45.1259C41.163 43.2333 41.4748 40.8369 42.5725 39.0517C43.6911 37.2325 45.7411 35.8601 48.3283 36.2108C50.976 36.5698 52.2533 38.5991 52.4152 40.5585C52.5675 42.4038 51.7282 44.6324 49.6838 45.2177L49.5842 45.2411C49.0855 45.3306 48.5908 45.029 48.4484 44.5311C48.2969 44.0003 48.6044 43.4467 49.135 43.2948L49.2736 43.245C49.9678 42.9502 50.5268 41.9789 50.423 40.7226C50.3216 39.497 49.591 38.3999 48.0598 38.1923C46.4119 37.9689 45.0686 38.8101 44.2756 40.0995C43.4618 41.4231 43.3438 43.0313 43.9699 44.1444C45.1212 46.1904 47.6031 47.3427 50.0656 47.1454C52.4622 46.9533 54.7714 45.4831 55.6242 42.2987C56.5139 38.9761 55.6913 36.7843 54.5842 35.4159C54.0157 34.7134 53.3526 34.2045 52.7561 33.871C52.3019 33.6171 51.7889 33.5045 51.2902 33.3729L17.4875 24.3583C16.964 24.2227 16.5237 24.0644 15.966 24.0565C15.2827 24.047 14.454 24.1563 13.6105 24.4804C11.9679 25.1117 10.1597 26.5982 9.26973 29.9208C8.4171 33.1049 9.68292 35.5331 11.6623 36.8983C13.6963 38.3009 16.4221 38.5445 18.4416 37.3485C19.5399 36.6976 20.2417 35.2464 20.1984 33.6933C20.1562 32.1799 19.4128 30.7793 17.8742 30.1483C16.4444 29.5622 15.263 30.1466 14.5627 31.1571C13.8452 32.193 13.8436 33.3132 14.2971 33.9159L14.3938 34.0292L14.4611 34.1063C14.7747 34.5043 14.868 35.1399 14.4963 35.4999C14.1243 35.8598 13.4176 35.817 13.0305 35.4901L12.9563 35.4198L12.8225 35.2743C11.5026 33.7444 11.8979 31.4927 12.9191 30.0184C14.0386 28.4024 16.1595 27.2841 18.632 28.2977C21.0477 29.2883 22.1369 31.5027 22.1965 33.6376C22.2548 35.7328 21.3272 37.9639 19.4592 39.0702C16.6652 40.7248 13.0978 40.3174 10.5275 38.5448C7.90289 36.7346 6.25191 33.463 7.33906 29.4032C8.38931 25.4821 10.635 23.4812 12.8938 22.6132C14.001 22.1877 15.086 22.0438 15.9943 22.0565ZM14.3518 16.7411C14.4858 16.2413 14.9759 15.9317 15.4758 16.0126L15.5764 16.0341L56.6086 27.0341L56.7053 27.0653C57.179 27.2452 57.4485 27.7585 57.3147 28.2587C57.1807 28.7588 56.6907 29.0683 56.1906 28.9872L56.091 28.9657L15.0588 17.9657L14.9611 17.9345C14.4877 17.7544 14.2179 17.2411 14.3518 16.7411Z" fill="#4554C9"/>
</g>
<defs>
<clipPath id="clip0_954_13">
<rect width="64" height="64" fill="white"/>
</clipPath>
</defs>
</svg>
