<svg width="216" height="64" viewBox="0 0 216 64" fill="none" xmlns="http://www.w3.org/2000/svg">
<path d="M95.3637 27.8068L92.2842 28.3523C92.1554 27.9583 91.9509 27.5833 91.6706 27.2273C91.3978 26.8712 91.0266 26.5795 90.5569 26.3523C90.0872 26.125 89.5001 26.0114 88.7956 26.0114C87.8334 26.0114 87.0304 26.2273 86.3865 26.6591C85.7425 27.0833 85.4206 27.6326 85.4206 28.3068C85.4206 28.8902 85.6365 29.3598 86.0683 29.7159C86.5001 30.072 87.1971 30.3636 88.1592 30.5909L90.9319 31.2273C92.538 31.5985 93.735 32.1705 94.5228 32.9432C95.3107 33.7159 95.7047 34.7197 95.7047 35.9545C95.7047 37 95.4016 37.9318 94.7956 38.75C94.1971 39.5606 93.36 40.197 92.2842 40.6591C91.216 41.1212 89.9774 41.3523 88.5683 41.3523C86.6137 41.3523 85.0191 40.9356 83.7842 40.1023C82.5494 39.2614 81.7918 38.0682 81.5115 36.5227L84.7956 36.0227C85.0001 36.8788 85.4206 37.5265 86.0569 37.9659C86.6933 38.3977 87.5228 38.6136 88.5456 38.6136C89.6592 38.6136 90.5494 38.3826 91.216 37.9205C91.8827 37.4508 92.216 36.8788 92.216 36.2045C92.216 35.6591 92.0115 35.2008 91.6024 34.8295C91.2009 34.4583 90.5834 34.178 89.7501 33.9886L86.7956 33.3409C85.1668 32.9697 83.9622 32.3788 83.1819 31.5682C82.4092 30.7576 82.0228 29.7311 82.0228 28.4886C82.0228 27.4583 82.3107 26.5568 82.8865 25.7841C83.4622 25.0114 84.2577 24.4091 85.2728 23.9773C86.288 23.5379 87.4509 23.3182 88.7615 23.3182C90.6478 23.3182 92.1327 23.7273 93.216 24.5455C94.2994 25.3561 95.0153 26.4432 95.3637 27.8068Z" fill="#0F0F11"/>
<path d="M106.793 41.3523C105.156 41.3523 103.728 40.9773 102.509 40.2273C101.289 39.4773 100.342 38.428 99.6677 37.0795C98.9935 35.7311 98.6564 34.1553 98.6564 32.3523C98.6564 30.5417 98.9935 28.9583 99.6677 27.6023C100.342 26.2462 101.289 25.1932 102.509 24.4432C103.728 23.6932 105.156 23.3182 106.793 23.3182C108.429 23.3182 109.857 23.6932 111.077 24.4432C112.297 25.1932 113.243 26.2462 113.918 27.6023C114.592 28.9583 114.929 30.5417 114.929 32.3523C114.929 34.1553 114.592 35.7311 113.918 37.0795C113.243 38.428 112.297 39.4773 111.077 40.2273C109.857 40.9773 108.429 41.3523 106.793 41.3523ZM106.804 38.5C107.865 38.5 108.743 38.2197 109.44 37.6591C110.137 37.0985 110.653 36.3523 110.986 35.4205C111.327 34.4886 111.497 33.4621 111.497 32.3409C111.497 31.2273 111.327 30.2045 110.986 29.2727C110.653 28.3333 110.137 27.5795 109.44 27.0114C108.743 26.4432 107.865 26.1591 106.804 26.1591C105.736 26.1591 104.85 26.4432 104.145 27.0114C103.448 27.5795 102.929 28.3333 102.588 29.2727C102.255 30.2045 102.088 31.2273 102.088 32.3409C102.088 33.4621 102.255 34.4886 102.588 35.4205C102.929 36.3523 103.448 37.0985 104.145 37.6591C104.85 38.2197 105.736 38.5 106.804 38.5Z" fill="#0F0F11"/>
<path d="M133.06 23.5455L126.73 41H123.094L116.753 23.5455H120.401L124.821 36.9773H125.003L129.412 23.5455H133.06Z" fill="#0F0F11"/>
<path d="M139.651 17.7273V41H136.253V17.7273H139.651Z" fill="#0F0F11"/>
<path d="M144.222 41V23.5455H147.619V41H144.222ZM145.938 20.8523C145.347 20.8523 144.839 20.6553 144.415 20.2614C143.998 19.8598 143.79 19.3826 143.79 18.8295C143.79 18.2689 143.998 17.7917 144.415 17.3977C144.839 16.9962 145.347 16.7955 145.938 16.7955C146.529 16.7955 147.032 16.9962 147.449 17.3977C147.873 17.7917 148.085 18.2689 148.085 18.8295C148.085 19.3826 147.873 19.8598 147.449 20.2614C147.032 20.6553 146.529 20.8523 145.938 20.8523Z" fill="#0F0F11"/>
<path d="M163.247 33.7614V23.5455H166.656V41H163.315V37.9773H163.134C162.732 38.9091 162.088 39.6856 161.202 40.3068C160.323 40.9205 159.228 41.2273 157.918 41.2273C156.797 41.2273 155.804 40.9811 154.94 40.4886C154.084 39.9886 153.41 39.25 152.918 38.2727C152.433 37.2955 152.19 36.0871 152.19 34.6477V23.5455H155.588V34.2386C155.588 35.428 155.918 36.375 156.577 37.0795C157.236 37.7841 158.092 38.1364 159.145 38.1364C159.781 38.1364 160.414 37.9773 161.043 37.6591C161.679 37.3409 162.206 36.8599 162.622 36.2159C163.047 35.572 163.255 34.7538 163.247 33.7614Z" fill="#0F0F11"/>
<path d="M171.222 41V23.5455H174.483V26.3864H174.699C175.063 25.4242 175.657 24.6742 176.483 24.1364C177.309 23.5909 178.297 23.3182 179.449 23.3182C180.616 23.3182 181.593 23.5909 182.381 24.1364C183.176 24.6818 183.763 25.4318 184.142 26.3864H184.324C184.741 25.4545 185.404 24.7121 186.313 24.1591C187.222 23.5985 188.305 23.3182 189.563 23.3182C191.146 23.3182 192.438 23.8144 193.438 24.8068C194.445 25.7992 194.949 27.2955 194.949 29.2955V41H191.551V29.6136C191.551 28.4318 191.229 27.5758 190.585 27.0455C189.941 26.5152 189.172 26.25 188.279 26.25C187.172 26.25 186.313 26.5909 185.699 27.2727C185.085 27.947 184.779 28.8144 184.779 29.875V41H181.392V29.3977C181.392 28.4508 181.097 27.6894 180.506 27.1136C179.915 26.5379 179.146 26.25 178.199 26.25C177.555 26.25 176.96 26.4205 176.415 26.7614C175.877 27.0947 175.441 27.5606 175.108 28.1591C174.782 28.7576 174.619 29.4508 174.619 30.2386V41H171.222Z" fill="#0F0F11"/>
<g clip-path="url(#clip0_1824_273)">
<path d="M34.75 37.2178L27.5742 64H25.5996C24.4628 64 23.398 63.9997 22.3984 63.9961L29.9199 35.9229L34.75 37.2178ZM38.4004 0C47.3609 3.65342e-10 51.8411 0.000290612 55.2637 1.74414C58.2743 3.27811 60.7219 5.72573 62.2559 8.73633C63.9997 12.1589 64 16.6391 64 25.5996V38.4004C64 47.3609 63.9997 51.8411 62.2559 55.2637C60.7219 58.2743 58.2743 60.7219 55.2637 62.2559C51.8411 63.9997 47.3609 64 38.4004 64H36.8916L40.9854 48.7236C41.1283 48.1903 40.8116 47.6411 40.2783 47.498C39.7451 47.3554 39.1958 47.672 39.0527 48.2051L34.8213 64H29.6445L36.6816 37.7344L39.5801 38.5117L39.6807 38.5332C40.1808 38.614 40.6706 38.3045 40.8047 37.8047C40.9387 37.3046 40.669 36.7914 40.1953 36.6113L40.0977 36.5801L25.6084 32.6973C25.0753 32.555 24.5267 32.8713 24.3838 33.4043C24.2409 33.9375 24.5579 34.4856 25.0908 34.6289L27.9883 35.4053L20.332 63.9795C18.1126 63.9537 16.2515 63.8899 14.6465 63.7393C14.7057 63.6506 14.7531 63.552 14.7822 63.4434L20.2178 43.1582C20.3604 42.6249 20.044 42.0766 19.5107 41.9336C18.9775 41.791 18.4292 42.1075 18.2861 42.6406L12.8506 62.9258C12.796 63.1299 12.8087 63.3365 12.875 63.5215C11.267 63.2636 9.93658 62.8674 8.73633 62.2559C5.72573 60.7219 3.27811 58.2743 1.74414 55.2637C0.000290612 51.8411 3.65342e-10 47.3609 0 38.4004V25.5996C3.65342e-10 16.6391 0.000290998 12.1589 1.74414 8.73633C3.27811 5.72573 5.72573 3.27811 8.73633 1.74414C12.1589 0.000291122 16.6391 3.68932e-10 25.5996 0H38.4004ZM15.998 22.0566C15.0894 22.0439 14.0041 22.1879 12.8965 22.6133C10.6366 23.4814 8.38956 25.4821 7.33887 29.4033C6.25124 33.4629 7.90261 36.7346 10.5283 38.5449C13.0998 40.3175 16.6695 40.7248 19.4648 39.0703C21.3338 37.964 22.2615 35.7329 22.2031 33.6377C22.1435 31.5026 21.0539 29.2884 18.6367 28.2979C16.1632 27.2845 14.0417 28.4026 12.9219 30.0186C11.9002 31.4929 11.5046 33.7445 12.8252 35.2744L12.959 35.4199L13.0332 35.4902C13.4205 35.8171 14.0008 35.8031 14.373 35.4434C14.7449 35.0834 14.7776 34.5044 14.4639 34.1064L14.3965 34.0293L14.2998 33.916C13.8463 33.3133 13.8477 32.1929 14.5654 31.1572C15.266 30.1465 16.4483 29.5624 17.8789 30.1484C19.4183 30.7795 20.1619 32.1799 20.2041 33.6934C20.2474 35.2467 19.5454 36.6978 18.4463 37.3486C16.4259 38.5444 13.699 38.301 11.6641 36.8984C9.68384 35.5332 8.4175 33.1049 9.27051 29.9209C10.1608 26.5983 11.9699 25.1119 13.6133 24.4805C14.457 24.1564 15.2861 24.0471 15.9697 24.0566C16.5277 24.0645 16.9685 24.2228 17.4922 24.3584L51.3115 33.373C51.8103 33.5045 52.3231 33.6174 52.7773 33.8711C53.3741 34.2046 54.0377 34.7136 54.6064 35.416C55.7141 36.7845 56.5377 38.9761 55.6475 42.2988C54.7942 45.4832 52.4837 46.9534 50.0859 47.1455C47.6224 47.3426 45.139 46.1904 43.9873 44.1445C43.3609 43.0314 43.4788 41.4232 44.293 40.0996C45.0863 38.8101 46.4305 37.9692 48.0791 38.1924C49.6112 38.4 50.3419 39.497 50.4434 40.7227C50.5471 41.979 49.9885 42.9503 49.2939 43.2451L49.1543 43.2949C48.6236 43.4469 48.3161 44.0005 48.4678 44.5312C48.6102 45.029 49.1056 45.3306 49.6045 45.2412L49.7041 45.2178C51.7495 44.6325 52.5889 42.4039 52.4365 40.5586C52.2746 38.5991 50.9967 36.5699 48.3477 36.2109C45.7592 35.8604 43.7079 37.2326 42.5889 39.0518C41.4908 40.837 41.1789 43.2335 42.2441 45.126C43.8376 47.9565 47.1329 49.3879 50.2461 49.1387C53.4254 48.8839 56.4912 46.8764 57.5791 42.8164C58.6297 38.8953 57.6842 36.0399 56.1611 34.1582C55.4146 33.236 54.5463 32.5683 53.7529 32.125C53.0449 31.7295 52.4114 31.5965 51.7451 31.418L18.0889 22.4482C17.3222 22.2428 16.8084 22.068 15.998 22.0566ZM15.4795 16.0127C14.9793 15.9319 14.4885 16.2413 14.3545 16.7412C14.2206 17.2412 14.4912 17.7545 14.9648 17.9346L15.0625 17.9658L56.1143 28.9658L56.2139 28.9873C56.7142 29.0684 57.2048 28.7589 57.3389 28.2588C57.4729 27.7586 57.2025 27.2453 56.7285 27.0654L56.6318 27.0342L15.5801 16.0342L15.4795 16.0127Z" fill="#4554C9"/>
</g>
<defs>
<clipPath id="clip0_1824_273">
<rect width="64" height="64" fill="white"/>
</clipPath>
</defs>
</svg>
