<svg width="64" height="64" viewBox="0 0 64 64" fill="none" xmlns="http://www.w3.org/2000/svg">
<g clip-path="url(#clip0_954_12)">
<path d="M0 16C0 7.16344 7.16344 0 16 0H48C56.8366 0 64 7.16344 64 16V48C64 56.8366 56.8366 64 48 64H16C7.16344 64 0 56.8366 0 48V16Z" fill="#4554C9"/>
<path d="M24.3759 33.4044C24.5189 32.8714 25.0667 32.555 25.5996 32.6974L40.082 36.5802L40.1796 36.6114C40.6531 36.7914 40.9228 37.3048 40.789 37.8048C40.655 38.3046 40.1649 38.6141 39.665 38.5333L39.5644 38.5118L36.6679 37.7345L29.6337 64.0001H27.5654L34.7373 37.2179L29.9091 35.9229L22.3906 64.0001H20.3212L27.9785 35.4054L25.083 34.629C24.55 34.4859 24.2331 33.9377 24.3759 33.4044ZM39.038 48.2052C39.1811 47.672 39.7296 47.3553 40.2626 47.4981C40.7956 47.6412 41.1124 48.1904 40.9697 48.7237L36.8779 64.0001H34.8076L39.038 48.2052ZM18.2812 42.6407C18.4243 42.1077 18.9719 41.791 19.5048 41.9337C20.0378 42.0766 20.3544 42.625 20.2119 43.1583L14.7792 63.4435C14.7272 63.6376 14.6206 63.8028 14.4814 63.9278C13.9683 63.8796 13.4626 63.8066 12.9648 63.711C12.8247 63.4846 12.7744 63.2034 12.8486 62.9259L18.2812 42.6407ZM15.9941 22.0567C16.8042 22.0681 17.3174 22.2428 18.0839 22.4483L51.7236 31.4181C52.3896 31.5966 53.0227 31.7296 53.7304 32.1251C54.5234 32.5684 55.3914 33.236 56.1376 34.1583C57.66 36.0399 58.6056 38.8955 57.5556 42.8165C56.4683 46.8765 53.4033 48.884 50.2255 49.1388C47.1137 49.3881 43.8202 47.9567 42.2275 45.1261C41.1627 43.2335 41.4746 40.8371 42.5722 39.0519C43.6908 37.2326 45.7408 35.8603 48.3281 36.211C50.9759 36.57 52.2532 38.5992 52.415 40.5587C52.5673 42.404 51.7279 44.6326 49.6835 45.2179L49.5839 45.2413C49.0853 45.3307 48.5905 45.0291 48.4482 44.5313C48.2965 44.0004 48.6041 43.4469 49.1347 43.295L49.2744 43.2452C49.9684 42.9502 50.5265 41.9789 50.4228 40.7228C50.3214 39.4971 49.5909 38.4001 48.0595 38.1925C46.4116 37.9692 45.0683 38.8102 44.2753 40.0997C43.4615 41.4233 43.3435 43.0315 43.9697 44.1446C45.1209 46.1906 47.6029 47.3428 50.0654 47.1456C52.462 46.9535 54.7711 45.4833 55.624 42.2989C56.5138 38.9762 55.6911 36.7846 54.5839 35.4161C54.0154 34.7136 53.3524 34.2047 52.7558 33.8712C52.3018 33.6174 51.7896 33.5046 51.291 33.3731L17.4873 24.3585C16.9638 24.2229 16.5235 24.0646 15.9658 24.0567C15.2824 24.0472 14.4538 24.1564 13.6103 24.4806C11.9676 25.1119 10.1594 26.5983 9.26948 29.921C8.41686 33.1051 9.68268 35.5333 11.6621 36.8985C13.6961 38.3011 16.4219 38.5447 18.4414 37.3487C19.5398 36.6979 20.2415 35.2467 20.1982 33.6935C20.156 32.18 19.4126 30.7796 17.874 30.1485C16.4441 29.5624 15.2628 30.1466 14.5625 31.1573C13.8449 32.1932 13.8433 33.3134 14.2968 33.9161L14.3935 34.0294L14.4609 34.1065C14.7745 34.5045 14.8678 35.1401 14.496 35.5001C14.124 35.8598 13.4173 35.8172 13.0302 35.4903L12.957 35.42L12.8232 35.2745C11.5029 33.7446 11.8986 31.4931 12.9199 30.0187C14.0393 28.4028 16.1594 27.2843 18.6318 28.2979C21.0476 29.2885 22.1367 31.5028 22.1962 33.6378C22.2546 35.733 21.327 37.9641 19.4589 39.0704C16.665 40.7249 13.0975 40.3176 10.5273 38.545C7.90264 36.7348 6.25166 33.4632 7.33882 29.4034C8.38906 25.482 10.6356 23.4814 12.8945 22.6134C14.0015 22.188 15.0859 22.044 15.9941 22.0567ZM14.3515 16.7413C14.4855 16.2414 14.9756 15.9319 15.4755 16.0128L15.5761 16.0343L56.6084 27.0343L56.705 27.0655C57.1788 27.2454 57.4492 27.7587 57.3154 28.2589C57.1814 28.759 56.6905 29.0685 56.1904 28.9874L56.0908 28.9659L15.0585 17.9659L14.9619 17.9347C14.4882 17.7548 14.2176 17.2415 14.3515 16.7413Z" fill="white"/>
</g>
<defs>
<clipPath id="clip0_954_12">
<rect width="64" height="64" fill="white"/>
</clipPath>
</defs>
</svg>
