<svg width="32" height="32" viewBox="0 0 32 32" fill="none" xmlns="http://www.w3.org/2000/svg">
<g clip-path="url(#clip0_9116_2423)">
<path d="M0 8C0 3.58172 3.58172 0 8 0H24C28.4183 0 32 3.58172 32 8V24C32 28.4183 28.4183 32 24 32H8C3.58172 32 0 28.4183 0 24V8Z" fill="#4554C9"/>
<path d="M12.8049 16.3487L20.049 18.2901L20.0979 18.3057C20.3347 18.3957 20.4696 18.6524 20.4026 18.9024C20.3355 19.1522 20.0909 19.3069 19.841 19.2667L19.7903 19.2559L18.341 18.8672L14.8225 32.0001H13.7873L17.3752 18.6085L14.9602 17.961L11.1994 32.0001H10.1643L13.9944 17.7022L12.5461 17.3145C12.2795 17.2429 12.1211 16.9689 12.1926 16.7022C12.2641 16.4356 12.5383 16.2774 12.8049 16.3487ZM20.1399 23.7491C20.4062 23.8207 20.5645 24.095 20.4934 24.3614L18.4465 32.0001H17.4113L19.5266 24.1026C19.5981 23.836 19.8732 23.6776 20.1399 23.7491ZM9.75607 20.9669C10.0225 21.0385 10.1809 21.3126 10.1096 21.5792L7.39181 31.7217C7.36579 31.8187 7.31189 31.9005 7.2424 31.9629C6.98595 31.9388 6.73342 31.9013 6.48459 31.8536C6.415 31.7406 6.38899 31.6012 6.42599 31.4629L9.14377 21.3204C9.21534 21.0538 9.48942 20.8954 9.75607 20.9669ZM7.99924 11.0284C8.40447 11.0341 8.66167 11.1209 9.04513 11.2237L25.8733 15.709C26.2064 15.7983 26.5232 15.8648 26.8772 16.0626C27.2738 16.2842 27.708 16.6181 28.0813 17.0792C28.8427 18.02 29.3155 19.4478 28.7903 21.4083C28.2463 23.4382 26.7129 24.442 25.1233 24.5694C23.5666 24.694 21.919 23.9778 21.1223 22.5626C20.5898 21.6163 20.7461 20.418 21.2951 19.5254C21.8547 18.6161 22.88 17.9302 24.174 18.1055C25.4986 18.285 26.138 19.2996 26.219 20.2794C26.2951 21.2019 25.8751 22.3156 24.8528 22.6085L24.8029 22.6202C24.5535 22.665 24.3058 22.5146 24.2346 22.2657C24.1587 22.0002 24.312 21.7235 24.5774 21.6475L24.6477 21.6221C24.9947 21.4745 25.2738 20.9893 25.2219 20.3614C25.1712 19.7486 24.8061 19.1997 24.0403 19.0958C23.2158 18.984 22.5434 19.4051 22.1467 20.0499C21.7396 20.7117 21.6811 21.5158 21.9944 22.0723C22.5703 23.0952 23.8114 23.6709 25.0432 23.5723C26.2421 23.4763 27.3978 22.7416 27.8244 21.1495C28.2695 19.4883 27.8577 18.3923 27.3039 17.7081C27.0195 17.3568 26.6873 17.1024 26.3889 16.9356C26.1618 16.8088 25.9058 16.7523 25.6565 16.6866L8.74631 12.1788C8.4846 12.111 8.26436 12.0324 7.98556 12.0284C7.64372 12.0236 7.2288 12.0782 6.80685 12.2403C5.98522 12.556 5.08115 13.2991 4.63595 14.96C4.20944 16.5521 4.84208 17.7667 5.83224 18.4493C6.84974 19.1506 8.21362 19.2719 9.22385 18.6739C9.77311 18.3484 10.1244 17.6232 10.1028 16.8467C10.0817 16.09 9.70938 15.3898 8.93967 15.0743C8.22457 14.7813 7.63375 15.0731 7.28342 15.5782C6.92447 16.0961 6.92373 16.6567 7.1506 16.9581L7.19845 17.0147L7.23263 17.0528C7.38952 17.2518 7.43616 17.5701 7.25021 17.7501C7.0641 17.93 6.71047 17.9086 6.51681 17.7452L6.4797 17.71L6.4133 17.6368C5.75296 16.8718 5.95028 15.746 6.46115 15.0088C7.02112 14.201 8.08196 13.6419 9.31857 14.1485C10.527 14.6437 11.0719 15.751 11.1018 16.8184C11.131 17.866 10.6671 18.9821 9.73263 19.5352C8.33507 20.3624 6.55058 20.1587 5.26486 19.2725C3.9519 18.3674 3.1263 16.7311 3.67013 14.7012C4.19554 12.7409 5.31861 11.7407 6.44845 11.3067C7.00227 11.094 7.54488 11.022 7.99924 11.0284ZM7.74045 8.00591L7.79025 8.01666L28.3166 13.5167L28.3645 13.5323C28.6013 13.6221 28.7368 13.879 28.6701 14.129C28.6031 14.3789 28.3577 14.5336 28.1076 14.4932L28.0578 14.4825L7.53146 8.98248L7.48263 8.96685C7.24585 8.87681 7.111 8.62015 7.17795 8.37017C7.24515 8.12043 7.49047 7.96544 7.74045 8.00591Z" fill="white"/>
</g>
<defs>
<clipPath id="clip0_9116_2423">
<rect width="32" height="32" fill="white"/>
</clipPath>
</defs>
</svg>
